<svg xmlns="http://www.w3.org/2000/svg" xmlns:xlink="http://www.w3.org/1999/xlink" width="500" zoomAndPan="magnify" viewBox="0 0 375 374.999991" height="500" preserveAspectRatio="xMidYMid meet" version="1.0"><defs><clipPath id="6ed3452e63"><path d="M 11.4375 11.4375 L 363.1875 11.4375 L 363.1875 363.1875 L 11.4375 363.1875 Z M 11.4375 11.4375 " clip-rule="nonzero"/></clipPath><clipPath id="842964ba54"><path d="M 153.511719 115.566406 L 221.761719 115.566406 L 221.761719 259.566406 L 153.511719 259.566406 Z M 153.511719 115.566406 " clip-rule="nonzero"/></clipPath></defs><g clip-path="url(#6ed3452e63)"><path fill="#302a6e" d="M 363.550781 187.496094 C 363.550781 190.378906 363.480469 193.257812 363.339844 196.132812 C 363.199219 199.011719 362.988281 201.886719 362.703125 204.753906 C 362.421875 207.621094 362.070312 210.480469 361.648438 213.328125 C 361.222656 216.179688 360.730469 219.015625 360.167969 221.84375 C 359.605469 224.667969 358.976562 227.480469 358.277344 230.273438 C 357.574219 233.070312 356.808594 235.84375 355.972656 238.601562 C 355.136719 241.359375 354.230469 244.09375 353.261719 246.808594 C 352.289062 249.519531 351.253906 252.207031 350.152344 254.871094 C 349.046875 257.53125 347.882812 260.164062 346.648438 262.769531 C 345.417969 265.375 344.121094 267.949219 342.765625 270.488281 C 341.40625 273.03125 339.984375 275.535156 338.503906 278.007812 C 337.023438 280.476562 335.480469 282.910156 333.882812 285.308594 C 332.28125 287.703125 330.621094 290.058594 328.90625 292.371094 C 327.1875 294.6875 325.417969 296.957031 323.589844 299.183594 C 321.761719 301.414062 319.878906 303.59375 317.945312 305.726562 C 316.011719 307.863281 314.023438 309.949219 311.988281 311.988281 C 309.949219 314.023438 307.863281 316.011719 305.726562 317.945312 C 303.59375 319.878906 301.414062 321.761719 299.183594 323.589844 C 296.957031 325.417969 294.6875 327.1875 292.371094 328.90625 C 290.058594 330.621094 287.703125 332.28125 285.308594 333.882812 C 282.910156 335.480469 280.476562 337.023438 278.007812 338.503906 C 275.535156 339.984375 273.03125 341.40625 270.488281 342.765625 C 267.945312 344.121094 265.375 345.417969 262.769531 346.648438 C 260.164062 347.882812 257.53125 349.046875 254.871094 350.152344 C 252.207031 351.253906 249.519531 352.289062 246.808594 353.261719 C 244.09375 354.230469 241.359375 355.136719 238.601562 355.972656 C 235.84375 356.808594 233.070312 357.574219 230.273438 358.277344 C 227.480469 358.976562 224.667969 359.605469 221.84375 360.167969 C 219.015625 360.730469 216.179688 361.222656 213.328125 361.648438 C 210.480469 362.070312 207.621094 362.421875 204.753906 362.703125 C 201.886719 362.988281 199.011719 363.199219 196.132812 363.339844 C 193.257812 363.480469 190.378906 363.550781 187.496094 363.550781 C 184.613281 363.550781 181.734375 363.480469 178.855469 363.339844 C 175.980469 363.199219 173.105469 362.988281 170.238281 362.703125 C 167.371094 362.421875 164.511719 362.070312 161.664062 361.648438 C 158.8125 361.222656 155.976562 360.730469 153.148438 360.167969 C 150.324219 359.605469 147.511719 358.976562 144.71875 358.277344 C 141.921875 357.574219 139.148438 356.808594 136.390625 355.972656 C 133.632812 355.136719 130.898438 354.230469 128.183594 353.261719 C 125.472656 352.289062 122.785156 351.253906 120.121094 350.152344 C 117.460938 349.046875 114.828125 347.882812 112.222656 346.648438 C 109.617188 345.417969 107.042969 344.121094 104.503906 342.765625 C 101.960938 341.40625 99.457031 339.984375 96.984375 338.503906 C 94.511719 337.023438 92.078125 335.480469 89.683594 333.882812 C 87.289062 332.28125 84.933594 330.621094 82.617188 328.90625 C 80.304688 327.1875 78.035156 325.417969 75.808594 323.589844 C 73.578125 321.761719 71.398438 319.878906 69.261719 317.945312 C 67.128906 316.011719 65.042969 314.023438 63.003906 311.988281 C 60.96875 309.949219 58.980469 307.863281 57.046875 305.726562 C 55.113281 303.59375 53.230469 301.414062 51.402344 299.183594 C 49.574219 296.957031 47.800781 294.6875 46.085938 292.371094 C 44.371094 290.058594 42.710938 287.703125 41.109375 285.308594 C 39.507812 282.910156 37.96875 280.476562 36.488281 278.007812 C 35.003906 275.535156 33.585938 273.03125 32.226562 270.488281 C 30.871094 267.949219 29.574219 265.375 28.34375 262.769531 C 27.109375 260.164062 25.941406 257.53125 24.839844 254.871094 C 23.738281 252.207031 22.703125 249.519531 21.730469 246.808594 C 20.761719 244.09375 19.855469 241.359375 19.019531 238.601562 C 18.183594 235.84375 17.414062 233.070312 16.714844 230.273438 C 16.015625 227.480469 15.382812 224.667969 14.820312 221.84375 C 14.261719 219.015625 13.765625 216.179688 13.34375 213.328125 C 12.921875 210.480469 12.570312 207.621094 12.285156 204.753906 C 12.003906 201.886719 11.792969 199.011719 11.652344 196.132812 C 11.511719 193.257812 11.4375 190.378906 11.4375 187.496094 C 11.4375 184.613281 11.511719 181.734375 11.652344 178.855469 C 11.792969 175.980469 12.003906 173.105469 12.285156 170.238281 C 12.570312 167.371094 12.921875 164.511719 13.34375 161.664062 C 13.765625 158.8125 14.261719 155.976562 14.820312 153.148438 C 15.382812 150.324219 16.015625 147.511719 16.714844 144.71875 C 17.414062 141.921875 18.183594 139.148438 19.019531 136.390625 C 19.855469 133.632812 20.761719 130.898438 21.730469 128.183594 C 22.703125 125.472656 23.738281 122.785156 24.839844 120.121094 C 25.941406 117.460938 27.109375 114.828125 28.34375 112.222656 C 29.574219 109.617188 30.871094 107.042969 32.226562 104.503906 C 33.585938 101.960938 35.003906 99.457031 36.488281 96.984375 C 37.96875 94.511719 39.507812 92.078125 41.109375 89.683594 C 42.710938 87.289062 44.371094 84.933594 46.085938 82.617188 C 47.800781 80.304688 49.574219 78.035156 51.402344 75.808594 C 53.230469 73.578125 55.113281 71.398438 57.046875 69.261719 C 58.980469 67.128906 60.96875 65.042969 63.003906 63.003906 C 65.042969 60.96875 67.128906 58.980469 69.261719 57.046875 C 71.398438 55.113281 73.578125 53.230469 75.808594 51.402344 C 78.035156 49.574219 80.304688 47.800781 82.617188 46.085938 C 84.933594 44.371094 87.289062 42.710938 89.683594 41.109375 C 92.078125 39.507812 94.511719 37.96875 96.984375 36.488281 C 99.457031 35.003906 101.960938 33.585938 104.503906 32.226562 C 107.042969 30.871094 109.617188 29.574219 112.222656 28.34375 C 114.828125 27.109375 117.460938 25.945312 120.121094 24.839844 C 122.785156 23.738281 125.472656 22.703125 128.183594 21.730469 C 130.898438 20.761719 133.632812 19.855469 136.390625 19.019531 C 139.148438 18.183594 141.921875 17.414062 144.71875 16.714844 C 147.511719 16.015625 150.324219 15.382812 153.148438 14.820312 C 155.976562 14.261719 158.8125 13.769531 161.664062 13.34375 C 164.511719 12.921875 167.371094 12.570312 170.238281 12.285156 C 173.105469 12.003906 175.980469 11.792969 178.855469 11.652344 C 181.734375 11.511719 184.613281 11.4375 187.496094 11.4375 C 190.378906 11.4375 193.257812 11.511719 196.132812 11.652344 C 199.011719 11.792969 201.886719 12.003906 204.753906 12.285156 C 207.621094 12.570312 210.480469 12.921875 213.328125 13.34375 C 216.179688 13.769531 219.015625 14.261719 221.84375 14.820312 C 224.667969 15.382812 227.480469 16.015625 230.273438 16.714844 C 233.070312 17.414062 235.84375 18.183594 238.601562 19.019531 C 241.359375 19.855469 244.09375 20.761719 246.808594 21.730469 C 249.519531 22.703125 252.207031 23.738281 254.871094 24.839844 C 257.53125 25.945312 260.164062 27.109375 262.769531 28.34375 C 265.375 29.574219 267.949219 30.871094 270.488281 32.226562 C 273.03125 33.585938 275.535156 35.003906 278.007812 36.488281 C 280.476562 37.96875 282.910156 39.507812 285.308594 41.109375 C 287.703125 42.710938 290.058594 44.371094 292.371094 46.085938 C 294.6875 47.800781 296.957031 49.574219 299.183594 51.402344 C 301.414062 53.230469 303.59375 55.113281 305.726562 57.046875 C 307.863281 58.980469 309.949219 60.96875 311.988281 63.003906 C 314.023438 65.042969 316.011719 67.128906 317.945312 69.261719 C 319.878906 71.398438 321.761719 73.578125 323.589844 75.808594 C 325.417969 78.035156 327.1875 80.304688 328.90625 82.617188 C 330.621094 84.933594 332.28125 87.289062 333.882812 89.683594 C 335.480469 92.078125 337.023438 94.511719 338.503906 96.984375 C 339.984375 99.457031 341.40625 101.960938 342.765625 104.503906 C 344.121094 107.042969 345.417969 109.617188 346.648438 112.222656 C 347.882812 114.828125 349.046875 117.460938 350.152344 120.121094 C 351.253906 122.785156 352.289062 125.472656 353.261719 128.183594 C 354.230469 130.898438 355.136719 133.632812 355.972656 136.390625 C 356.808594 139.148438 357.574219 141.921875 358.277344 144.71875 C 358.976562 147.511719 359.609375 150.324219 360.167969 153.148438 C 360.730469 155.976562 361.222656 158.8125 361.648438 161.664062 C 362.070312 164.511719 362.421875 167.371094 362.703125 170.238281 C 362.988281 173.105469 363.199219 175.980469 363.339844 178.855469 C 363.480469 181.734375 363.550781 184.613281 363.550781 187.496094 Z M 363.550781 187.496094 " fill-opacity="1" fill-rule="nonzero"/></g><g clip-path="url(#842964ba54)"><path fill="#ffffff" d="M 206.015625 139.453125 L 221.761719 139.453125 L 221.761719 115.789062 L 201.65625 115.789062 L 201.65625 115.878906 C 175.222656 116.847656 169.773438 131.605469 169.316406 147.210938 L 169.257812 147.210938 L 169.257812 163.632812 L 153.511719 163.632812 L 153.511719 187.324219 L 169.257812 187.324219 L 169.257812 259.34375 L 197.507812 259.34375 L 197.507812 187.324219 L 217.765625 187.324219 L 221.761719 163.632812 L 197.507812 163.632812 L 197.507812 148.929688 C 197.507812 143.710938 201.019531 139.453125 206.015625 139.453125 Z M 206.015625 139.453125 " fill-opacity="1" fill-rule="nonzero"/></g></svg>